<mxfile host="65bd71144e">
    <diagram id="DfC-5djUKAhWsruYf081" name="Page-1">
        <mxGraphModel dx="1054" dy="617" grid="1" gridSize="10" guides="1" tooltips="1" connect="1" arrows="1" fold="1" page="1" pageScale="1" pageWidth="827" pageHeight="1169" math="0" shadow="0">
            <root>
                <mxCell id="0"/>
                <mxCell id="1" parent="0"/>
                <mxCell id="2" value="Calendrier" style="html=1;" vertex="1" parent="1">
                    <mxGeometry x="330" y="20" width="110" height="50" as="geometry"/>
                </mxCell>
                <mxCell id="3" value="Elève" style="shape=umlActor;verticalLabelPosition=bottom;verticalAlign=top;html=1;" vertex="1" parent="1">
                    <mxGeometry x="50" y="260" width="30" height="60" as="geometry"/>
                </mxCell>
                <mxCell id="4" value="Bénévole" style="shape=umlActor;verticalLabelPosition=bottom;verticalAlign=top;html=1;" vertex="1" parent="1">
                    <mxGeometry x="50" y="730" width="30" height="60" as="geometry"/>
                </mxCell>
                <mxCell id="5" value="" style="endArrow=open;endFill=1;endSize=12;html=1;entryX=0.5;entryY=0;entryDx=0;entryDy=0;entryPerimeter=0;" edge="1" parent="1" target="4">
                    <mxGeometry width="160" relative="1" as="geometry">
                        <mxPoint x="65" y="340" as="sourcePoint"/>
                        <mxPoint x="600" y="660" as="targetPoint"/>
                    </mxGeometry>
                </mxCell>
                <mxCell id="6" value="visualiser le calendrier" style="ellipse;whiteSpace=wrap;html=1;fillColor=#008a00;fontColor=#ffffff;strokeColor=#005700;" vertex="1" parent="1">
                    <mxGeometry x="160" y="490" width="140" height="70" as="geometry"/>
                </mxCell>
                <mxCell id="7" value="" style="endArrow=open;endFill=1;endSize=12;html=1;entryX=0;entryY=0.5;entryDx=0;entryDy=0;" edge="1" parent="1" target="6">
                    <mxGeometry width="160" relative="1" as="geometry">
                        <mxPoint x="70" y="525" as="sourcePoint"/>
                        <mxPoint x="150" y="524.5" as="targetPoint"/>
                        <Array as="points">
                            <mxPoint x="100" y="524.5"/>
                        </Array>
                    </mxGeometry>
                </mxCell>
                <mxCell id="8" value="consulter mes évènements" style="ellipse;whiteSpace=wrap;html=1;fillColor=#0050ef;fontColor=#ffffff;strokeColor=#001DBC;" vertex="1" parent="1">
                    <mxGeometry x="330" y="260" width="140" height="70" as="geometry"/>
                </mxCell>
                <mxCell id="9" value="supprimer évènement" style="ellipse;whiteSpace=wrap;html=1;fillColor=#0050ef;fontColor=#ffffff;strokeColor=#001DBC;" vertex="1" parent="1">
                    <mxGeometry x="430" y="490" width="140" height="70" as="geometry"/>
                </mxCell>
                <mxCell id="10" value="ajouter un évènement" style="ellipse;whiteSpace=wrap;html=1;fillColor=#0050ef;fontColor=#ffffff;strokeColor=#001DBC;" vertex="1" parent="1">
                    <mxGeometry x="330" y="730" width="140" height="70" as="geometry"/>
                </mxCell>
                <mxCell id="11" value="include" style="endArrow=open;endSize=12;dashed=1;html=1;entryX=0.017;entryY=0.6;entryDx=0;entryDy=0;entryPerimeter=0;" edge="1" parent="1" target="8">
                    <mxGeometry x="0.5699" y="15" width="160" relative="1" as="geometry">
                        <mxPoint x="230" y="489" as="sourcePoint"/>
                        <mxPoint x="390" y="489" as="targetPoint"/>
                        <Array as="points">
                            <mxPoint x="230" y="302"/>
                        </Array>
                        <mxPoint as="offset"/>
                    </mxGeometry>
                </mxCell>
                <mxCell id="12" value="include" style="endArrow=open;endSize=12;dashed=1;html=1;" edge="1" parent="1">
                    <mxGeometry x="-0.0769" y="15" width="160" relative="1" as="geometry">
                        <mxPoint x="300" y="524.5" as="sourcePoint"/>
                        <mxPoint x="430" y="524.5" as="targetPoint"/>
                        <mxPoint y="1" as="offset"/>
                    </mxGeometry>
                </mxCell>
                <mxCell id="13" value="include" style="endArrow=open;endSize=12;dashed=1;html=1;entryX=0;entryY=0.5;entryDx=0;entryDy=0;" edge="1" parent="1" target="10">
                    <mxGeometry x="0.6721" y="15" width="160" relative="1" as="geometry">
                        <mxPoint x="230" y="560" as="sourcePoint"/>
                        <mxPoint x="390" y="560" as="targetPoint"/>
                        <Array as="points">
                            <mxPoint x="230" y="765"/>
                        </Array>
                        <mxPoint as="offset"/>
                    </mxGeometry>
                </mxCell>
                <mxCell id="14" value="modifier le noms ,la date ou l'heure de l'évènement" style="ellipse;whiteSpace=wrap;html=1;fillColor=#0050ef;fontColor=#ffffff;strokeColor=#001DBC;" vertex="1" parent="1">
                    <mxGeometry x="550" y="140" width="170" height="80" as="geometry"/>
                </mxCell>
                <mxCell id="15" value="include" style="endArrow=open;endSize=12;dashed=1;html=1;entryX=0;entryY=0.5;entryDx=0;entryDy=0;" edge="1" parent="1" target="14">
                    <mxGeometry x="0.1632" y="10" width="160" relative="1" as="geometry">
                        <mxPoint x="390" y="259" as="sourcePoint"/>
                        <mxPoint x="550" y="259" as="targetPoint"/>
                        <Array as="points">
                            <mxPoint x="390" y="180"/>
                        </Array>
                        <mxPoint as="offset"/>
                    </mxGeometry>
                </mxCell>
            </root>
        </mxGraphModel>
    </diagram>
</mxfile>